<?xml version="1.0" encoding="utf-8"?>
<!DOCTYPE svg PUBLIC "-//W3C//DTD SVG 1.1//EN" "http://www.w3.org/Graphics/SVG/1.1/DTD/svg11.dtd">
<svg version="1.1" id="Layer_1" xmlns="http://www.w3.org/2000/svg" xmlns:xlink="http://www.w3.org/1999/xlink" x="0px" y="0px"
	 viewBox="0 0 138 44" enable-background="new 0 0 138 44" xml:space="preserve">
<path fill="#010101" d="M138,41.4V44h-25.7v-2.6H138z"/>
<g>
	<path fill="#010101" d="M15.8,0.9c2.4,0,4.6,0.4,6.6,1.1c2,0.8,3.8,1.9,5.3,3.4c1.5,1.5,2.7,3.4,3.5,5.7c0.8,2.3,1.3,4.9,1.3,8
		c0,2.7-0.3,5.1-1,7.4c-0.7,2.3-1.7,4.2-3.1,5.9c-1.4,1.6-3.1,2.9-5.2,3.9c-2.1,0.9-4.5,1.4-7.3,1.4H0V0.9H15.8z M15.3,30.8
		c1.2,0,2.3-0.2,3.4-0.6c1.1-0.4,2.1-1,2.9-1.9c0.9-0.9,1.5-2,2.1-3.4c0.5-1.4,0.8-3.1,0.8-5.1c0-1.9-0.2-3.5-0.5-5
		c-0.4-1.5-1-2.8-1.8-3.8c-0.8-1.1-1.9-1.9-3.3-2.4c-1.4-0.6-3-0.8-5-0.8H8.1v23.2H15.3z"/>
	<path fill="#010101" d="M43.1,0.9v36.7H35V0.9H43.1z"/>
	<path fill="#010101" d="M67.5,0.9l13.7,36.7h-8.4l-2.8-8.2H56.4l-2.9,8.2h-8.1L59.3,0.9H67.5z M68,23.4L63.4,9.9h-0.1l-4.8,13.5H68
		z"/>
	<path fill="#010101" d="M88.6,28.6c0.4,0.9,1,1.6,1.8,2.1c0.7,0.5,1.6,0.9,2.6,1.2c1,0.3,2,0.4,3.1,0.4c0.7,0,1.5-0.1,2.3-0.2
		c0.8-0.1,1.6-0.4,2.3-0.7c0.7-0.3,1.3-0.8,1.8-1.4c0.5-0.6,0.7-1.4,0.7-2.3c0-1-0.3-1.8-1-2.4c-0.6-0.6-1.5-1.1-2.5-1.5
		c-1-0.4-2.2-0.8-3.5-1.1c-1.3-0.3-2.6-0.7-4-1c-1.4-0.3-2.7-0.8-4-1.3c-1.3-0.5-2.5-1.1-3.5-1.9c-1-0.8-1.9-1.8-2.5-3
		c-0.6-1.2-1-2.6-1-4.3c0-1.9,0.4-3.5,1.2-4.9s1.9-2.5,3.2-3.5c1.3-0.9,2.8-1.6,4.4-2.1C91.8,0.2,93.4,0,95.1,0
		c1.9,0,3.8,0.2,5.5,0.6c1.8,0.4,3.3,1.1,4.7,2.1c1.4,1,2.5,2.2,3.3,3.7c0.8,1.5,1.2,3.3,1.2,5.4H102c-0.1-1.1-0.3-2-0.7-2.7
		c-0.4-0.7-0.9-1.3-1.6-1.7c-0.7-0.4-1.4-0.7-2.2-0.9c-0.8-0.2-1.8-0.3-2.8-0.3c-0.7,0-1.3,0.1-2,0.2c-0.7,0.1-1.2,0.4-1.8,0.7
		c-0.5,0.3-1,0.8-1.3,1.3c-0.3,0.5-0.5,1.2-0.5,2c0,0.7,0.1,1.3,0.4,1.7c0.3,0.4,0.8,0.9,1.6,1.2c0.8,0.4,1.9,0.8,3.3,1.1
		c1.4,0.4,3.3,0.9,5.6,1.4c0.7,0.1,1.6,0.4,2.9,0.7c1.2,0.4,2.4,0.9,3.6,1.7c1.2,0.8,2.2,1.8,3.1,3.2c0.9,1.3,1.3,3,1.3,5.1
		c0,1.7-0.3,3.2-1,4.7c-0.7,1.4-1.6,2.7-2.9,3.7c-1.3,1-2.9,1.9-4.8,2.4c-1.9,0.6-4.1,0.9-6.6,0.9c-2,0-4-0.2-5.9-0.7
		c-1.9-0.5-3.6-1.3-5-2.3c-1.5-1.1-2.6-2.4-3.5-4.1c-0.9-1.6-1.3-3.6-1.2-5.9h7.8C87.9,26.7,88.2,27.7,88.6,28.6z"/>
</g>
</svg>
